<?xml version="1.0" encoding="UTF-8"?>
<svg version="1.1" xmlns="http://www.w3.org/2000/svg" width="500" height="500">
<path d="M0 0 C0.75694176 -0.00380567 1.51388353 -0.00761134 2.29376292 -0.01153234 C4.83271793 -0.02184697 7.37144932 -0.0179422 9.91041946 -0.01409245 C11.74813405 -0.01854491 13.58584672 -0.02385898 15.42355657 -0.02996117 C20.47581103 -0.04415044 25.528004 -0.04580428 30.58027554 -0.04536426 C36.02827796 -0.04701163 41.47625499 -0.06007662 46.92424393 -0.07155704 C58.83740292 -0.09441171 70.7505441 -0.10232805 82.66372204 -0.10738349 C90.10160144 -0.11063974 97.53947567 -0.11716176 104.97735214 -0.12438488 C125.56906722 -0.14395084 146.16077747 -0.16035526 166.75250244 -0.16326141 C168.07033071 -0.16344898 169.38815899 -0.16363655 170.74592145 -0.16382981 C172.74854466 -0.16410614 174.75116788 -0.16437889 176.75379109 -0.16464943 C178.76231972 -0.16492114 180.77084835 -0.16519782 182.77937698 -0.16547489 C183.44307192 -0.16556291 184.10676685 -0.16565094 184.79057375 -0.16574163 C205.64300298 -0.1686469 226.49533951 -0.19074211 247.34773636 -0.22699833 C270.77807704 -0.26773585 294.20835936 -0.29140048 317.63873792 -0.29172093 C330.04354471 -0.2923058 342.44823217 -0.30081716 354.85300827 -0.32971859 C365.41474995 -0.3542128 375.97632876 -0.36152848 386.53809115 -0.34647106 C391.92669995 -0.33929442 397.31498701 -0.34019249 402.70355988 -0.36288166 C407.63849668 -0.38346169 412.57286419 -0.38088015 417.50779477 -0.36000682 C419.2910967 -0.3565101 421.07443963 -0.3614296 422.8576878 -0.37571125 C433.74710024 -0.45728741 442.29195145 0.17167379 450.94539261 7.47099972 C457.48953772 15.26768013 460.40378665 21.95693856 460.50130081 32.252738 C460.51413605 33.4381216 460.52697128 34.62350521 460.54019547 35.84480953 C460.55127586 37.7557893 460.55127586 37.7557893 460.56258011 39.70537472 C460.56665564 40.36004601 460.57073116 41.01471729 460.57493019 41.6892271 C460.59573902 45.1578225 460.6100603 48.626379 460.61946487 52.09502316 C460.63048977 55.64878082 460.66485797 59.20190556 460.70463657 62.75544071 C460.73098869 65.51297189 460.73917321 68.27035677 460.74274635 71.02800274 C460.74988882 72.96597178 460.77624794 74.90384002 460.80313492 76.8416357 C460.77992031 86.39782465 459.39129115 95.81658554 452.69929886 103.13506222 C452.10890823 103.81310909 451.51851761 104.49115597 450.91023636 105.18974972 C441.32605971 112.86288208 432.01140962 112.97514927 420.25716019 112.89498043 C418.41598777 112.90074645 416.57482111 112.90869078 414.73366642 112.91861665 C409.69030654 112.93944718 404.64742105 112.92919196 399.6040597 112.91368556 C394.15883487 112.9023605 388.71369091 112.91984052 383.26848221 112.93358517 C372.60766135 112.95580969 361.94701658 112.95101982 351.28618884 112.93652196 C342.62135674 112.92522667 333.95657396 112.92370009 325.2917366 112.92914104 C323.44138313 112.93029029 323.44138313 112.93029029 321.55364877 112.93146276 C319.04761941 112.9330614 316.54159006 112.93468246 314.03556073 112.93632571 C291.21023861 112.95017461 268.38500121 112.93581664 245.55969508 112.90961273 C224.73345692 112.88588557 203.90737163 112.88800874 183.0811348 112.91191769 C159.669794 112.9387047 136.25853303 112.94920764 112.84717846 112.93385637 C110.35040602 112.93226363 107.85363358 112.93069178 105.35686111 112.92914104 C104.12842493 112.92836967 102.89998875 112.92759829 101.63432723 112.92680354 C92.98064007 112.92248775 84.32700716 112.92977051 75.6733284 112.94153881 C65.12630108 112.95556672 54.5794598 112.95175755 44.03245378 112.92513509 C38.65193331 112.91200102 33.27172296 112.90683782 27.89120483 112.92338085 C22.96380417 112.93830152 18.03700049 112.93005696 13.10965383 112.90349309 C11.32917347 112.89791715 9.54864247 112.90072864 7.76819479 112.91287203 C-3.10920029 112.98135785 -11.65375966 112.33967306 -20.29679489 105.04912472 C-26.78583978 97.31809059 -29.78236715 90.64512492 -29.82096481 80.41924191 C-29.82734467 79.26744442 -29.83372452 78.11564693 -29.8402977 76.9289465 C-29.84196693 75.0741769 -29.84196693 75.0741769 -29.84366989 73.18193722 C-29.84699829 71.90079037 -29.85032669 70.61964352 -29.85375595 69.29967403 C-29.85973228 66.58968419 -29.86159749 63.87972615 -29.86100388 61.16973019 C-29.86090255 57.71910747 -29.87453062 54.26869188 -29.89177608 50.8181181 C-29.90565972 47.50188855 -29.90498731 44.18569538 -29.90616989 40.86943722 C-29.91335541 39.64102108 -29.92054092 38.41260494 -29.92794418 37.14696407 C-29.89616972 25.12134319 -28.23207175 16.11682431 -19.71476364 7.20928097 C-13.64049359 1.58883569 -8.27949502 -0.04543913 0 0 Z " fill="#FCFDFD" transform="translate(34.67570114135742,172.7399377822876)"/>
<path d="M0 0 C0.75694176 -0.00380567 1.51388353 -0.00761134 2.29376292 -0.01153234 C4.83271793 -0.02184697 7.37144932 -0.0179422 9.91041946 -0.01409245 C11.74813405 -0.01854491 13.58584672 -0.02385898 15.42355657 -0.02996117 C20.47581103 -0.04415044 25.528004 -0.04580428 30.58027554 -0.04536426 C36.02827796 -0.04701163 41.47625499 -0.06007662 46.92424393 -0.07155704 C58.83740292 -0.09441171 70.7505441 -0.10232805 82.66372204 -0.10738349 C90.10160144 -0.11063974 97.53947567 -0.11716176 104.97735214 -0.12438488 C125.56906722 -0.14395084 146.16077747 -0.16035526 166.75250244 -0.16326141 C168.07033071 -0.16344898 169.38815899 -0.16363655 170.74592145 -0.16382981 C172.74854466 -0.16410614 174.75116788 -0.16437889 176.75379109 -0.16464943 C178.76231972 -0.16492114 180.77084835 -0.16519782 182.77937698 -0.16547489 C183.44307192 -0.16556291 184.10676685 -0.16565094 184.79057375 -0.16574163 C205.64300298 -0.1686469 226.49533951 -0.19074211 247.34773636 -0.22699833 C270.77807704 -0.26773585 294.20835936 -0.29140048 317.63873792 -0.29172093 C330.04354471 -0.2923058 342.44823217 -0.30081716 354.85300827 -0.32971859 C365.41474995 -0.3542128 375.97632876 -0.36152848 386.53809115 -0.34647106 C391.92669995 -0.33929442 397.31498701 -0.34019249 402.70355988 -0.36288166 C407.63849668 -0.38346169 412.57286419 -0.38088015 417.50779477 -0.36000682 C419.2910967 -0.3565101 421.07443963 -0.3614296 422.8576878 -0.37571125 C433.74710024 -0.45728741 442.29195145 0.17167379 450.94539261 7.47099972 C457.48953772 15.26768013 460.40378665 21.95693856 460.50130081 32.252738 C460.51413605 33.4381216 460.52697128 34.62350521 460.54019547 35.84480953 C460.55127586 37.7557893 460.55127586 37.7557893 460.56258011 39.70537472 C460.56665564 40.36004601 460.57073116 41.01471729 460.57493019 41.6892271 C460.59573902 45.1578225 460.6100603 48.626379 460.61946487 52.09502316 C460.63048977 55.64878082 460.66485797 59.20190556 460.70463657 62.75544071 C460.73098869 65.51297189 460.73917321 68.27035677 460.74274635 71.02800274 C460.74988882 72.96597178 460.77624794 74.90384002 460.80313492 76.8416357 C460.77992031 86.39782465 459.39129115 95.81658554 452.69929886 103.13506222 C452.10890823 103.81310909 451.51851761 104.49115597 450.91023636 105.18974972 C441.32605971 112.86288208 432.01140962 112.97514927 420.25716019 112.89498043 C418.41598777 112.90074645 416.57482111 112.90869078 414.73366642 112.91861665 C409.69030654 112.93944718 404.64742105 112.92919196 399.6040597 112.91368556 C394.15883487 112.9023605 388.71369091 112.91984052 383.26848221 112.93358517 C372.60766135 112.95580969 361.94701658 112.95101982 351.28618884 112.93652196 C342.62135674 112.92522667 333.95657396 112.92370009 325.2917366 112.92914104 C323.44138313 112.93029029 323.44138313 112.93029029 321.55364877 112.93146276 C319.04761941 112.9330614 316.54159006 112.93468246 314.03556073 112.93632571 C291.21023861 112.95017461 268.38500121 112.93581664 245.55969508 112.90961273 C224.73345692 112.88588557 203.90737163 112.88800874 183.0811348 112.91191769 C159.669794 112.9387047 136.25853303 112.94920764 112.84717846 112.93385637 C110.35040602 112.93226363 107.85363358 112.93069178 105.35686111 112.92914104 C104.12842493 112.92836967 102.89998875 112.92759829 101.63432723 112.92680354 C92.98064007 112.92248775 84.32700716 112.92977051 75.6733284 112.94153881 C65.12630108 112.95556672 54.5794598 112.95175755 44.03245378 112.92513509 C38.65193331 112.91200102 33.27172296 112.90683782 27.89120483 112.92338085 C22.96380417 112.93830152 18.03700049 112.93005696 13.10965383 112.90349309 C11.32917347 112.89791715 9.54864247 112.90072864 7.76819479 112.91287203 C-3.10920029 112.98135785 -11.65375966 112.33967306 -20.29679489 105.04912472 C-26.78583978 97.31809059 -29.78236715 90.64512492 -29.82096481 80.41924191 C-29.82734467 79.26744442 -29.83372452 78.11564693 -29.8402977 76.9289465 C-29.84196693 75.0741769 -29.84196693 75.0741769 -29.84366989 73.18193722 C-29.84699829 71.90079037 -29.85032669 70.61964352 -29.85375595 69.29967403 C-29.85973228 66.58968419 -29.86159749 63.87972615 -29.86100388 61.16973019 C-29.86090255 57.71910747 -29.87453062 54.26869188 -29.89177608 50.8181181 C-29.90565972 47.50188855 -29.90498731 44.18569538 -29.90616989 40.86943722 C-29.91335541 39.64102108 -29.92054092 38.41260494 -29.92794418 37.14696407 C-29.89616972 25.12134319 -28.23207175 16.11682431 -19.71476364 7.20928097 C-13.64049359 1.58883569 -8.27949502 -0.04543913 0 0 Z M-20.42179489 14.22099972 C-25.22196574 22.02688502 -25.14985828 29.01195207 -25.14445114 38.02959347 C-25.15156444 39.47537177 -25.15926512 40.92114729 -25.16752243 42.36691952 C-25.18092864 45.39038095 -25.18255414 48.41358145 -25.1766777 51.43706417 C-25.17079262 55.28702597 -25.20133967 59.13572189 -25.24179459 62.9854393 C-25.26781257 65.97030891 -25.27053626 68.95487965 -25.26690292 71.93984699 C-25.26858182 73.35785947 -25.27810427 74.77588763 -25.29604721 76.19378757 C-25.40404712 85.7843204 -24.65539651 93.86012606 -17.92020798 101.16370296 C-12.10938915 106.66721677 -5.83915444 108.71726663 2.06057835 108.64317226 C2.81192046 108.64813178 3.56326257 108.65309129 4.33737263 108.6582011 C6.85136119 108.6711395 9.36481707 108.66277825 11.87881851 108.6544714 C13.70089856 108.65936114 15.5229755 108.66555133 17.34504718 108.67292929 C22.34946781 108.68934145 27.35373105 108.68700825 32.3581692 108.68155432 C37.75639891 108.6788857 43.15458651 108.6934128 48.55279922 108.70564938 C59.12775958 108.72671282 69.70266511 108.73124369 80.27764396 108.72946149 C88.87293653 108.72815429 97.468212 108.73195584 106.06350136 108.73938656 C108.53859462 108.74148574 111.01368789 108.74358334 113.48878115 108.74567938 C114.72067672 108.74672291 115.95257229 108.74776643 117.22179803 108.74884158 C140.5250407 108.76774774 163.8282519 108.76669264 187.13149907 108.75987226 C208.45096356 108.75429684 229.77026997 108.77512151 251.0897098 108.80823272 C272.97833025 108.84196418 294.86689314 108.85713871 316.75554007 108.8525157 C329.04519021 108.85027042 341.33472928 108.85552276 353.62435722 108.88040829 C364.08726818 108.90141434 374.55000718 108.90502023 385.01292519 108.8861087 C390.35090525 108.87694658 395.68856463 108.87582268 401.02651978 108.89646435 C405.91516626 108.91515942 410.80322908 108.91068706 415.69185325 108.88791853 C417.4582983 108.8837291 419.22478798 108.88794434 420.99118588 108.90151447 C431.21870896 108.97472162 440.24351623 108.80517992 448.21712905 101.53397417 C456.00770574 93.53287003 455.79937583 83.89198599 455.79304886 73.35771847 C455.80016359 71.91097378 455.80786447 70.46423187 455.81612015 69.01749325 C455.82951195 65.99581194 455.83115751 62.9743917 455.82527542 59.95268917 C455.81937982 56.10153845 455.84998783 52.25164863 455.8903923 48.40074158 C455.91637824 45.41591429 455.91913706 42.43138647 455.91550064 39.44646168 C455.9171813 38.0276227 455.92672123 36.6087683 455.94464493 35.19004154 C456.05203021 25.6417567 455.29479098 18.55740084 448.59810257 11.4203558 C442.66906975 5.6819805 435.57071587 3.80060237 427.48058891 3.87695217 C426.72978133 3.87199266 425.97897374 3.86703314 425.20541441 3.86192334 C422.69926452 3.84900974 420.19365113 3.85733824 417.68748856 3.86565304 C415.86867025 3.86076213 414.04985505 3.8545714 412.23104513 3.84719515 C407.24028522 3.83079799 402.24968331 3.83311312 397.25890589 3.83857012 C391.87364547 3.84124056 386.48842714 3.82670827 381.10318375 3.81447506 C370.55576604 3.79341986 360.00840331 3.78888025 349.46096708 3.79066294 C340.88810497 3.79197047 332.31526001 3.78816692 323.74240112 3.78073788 C321.27318776 3.77863869 318.80397439 3.77654109 316.33476102 3.77444506 C314.49128192 3.77287977 314.49128192 3.77287977 312.61056082 3.77128285 C289.36692532 3.75238029 266.12332139 3.7534308 242.87968139 3.76025218 C221.61525733 3.76582826 200.35095373 3.74499939 179.08655782 3.71189171 C157.25214628 3.67816037 135.41779244 3.66298565 113.58335435 3.66760874 C101.32501814 3.6698539 89.06679327 3.66460318 76.80847931 3.63971615 C66.3730408 3.61871033 55.9377747 3.61510406 45.50232913 3.63401574 C40.17851867 3.6431777 34.85502975 3.64430218 29.53124428 3.62366009 C24.65559012 3.60496465 19.78052117 3.60943776 14.90488939 3.6322059 C13.14318482 3.63639522 11.38143551 3.63218049 9.61977823 3.61860996 C-2.3817175 3.53247133 -12.30759025 4.38706812 -20.42179489 14.22099972 Z " fill="#4B7064" transform="translate(34.67570114135742,172.7399377822876)"/>
<path d="M0 0 C29.59360086 -0.11881744 59.18715199 -0.21924599 88.78096057 -0.27199057 C101.30994805 -0.29466476 113.83878962 -0.32544636 126.36769057 -0.37808111 C137.05214533 -0.4228886 147.73646932 -0.45053588 158.42101992 -0.45567027 C163.88002815 -0.45878631 169.33870514 -0.46995955 174.79762221 -0.50283316 C179.80176587 -0.5327339 184.80538541 -0.53933399 189.80959953 -0.52755526 C191.61902694 -0.52735594 193.42847956 -0.53560816 195.23782099 -0.55324915 C206.20792553 -0.65457176 214.81741036 -0.08910091 223.53837539 7.26718256 C230.13356694 15.12467959 233.05230678 21.83910042 233.03080703 32.22348139 C233.03073149 33.4443696 233.03065596 34.66525782 233.03057814 35.92314264 C233.02541686 37.23163675 233.02025557 38.54013086 233.01493789 39.88827631 C233.01307124 41.24876467 233.0116485 42.60925371 233.01065017 43.96974298 C233.00684439 47.53879793 232.99703078 51.10781175 232.98594619 54.67685053 C232.97569026 58.323492 232.97114361 61.97014017 232.96610976 65.61679193 C232.95540666 72.76329307 232.93835367 79.90976637 232.91728164 87.05624506 C231.59728164 86.72624506 230.27728164 86.39624506 228.91728164 86.05624506 C228.91363601 85.31201792 228.90999038 84.56779077 228.90623427 83.80101129 C228.86821715 76.75451123 228.81121054 69.70847246 228.73337889 62.66231748 C228.69402967 59.04059837 228.66178044 55.41911781 228.64628554 51.79721186 C228.63103509 48.29557203 228.59644443 44.79458859 228.54897261 41.29324266 C228.52712347 39.32103993 228.52481513 37.34865154 228.52293349 35.37632868 C228.35852679 25.19952873 226.31544237 17.28626578 218.91728164 10.05624506 C211.9482527 5.60135947 204.48429911 3.75039152 196.24677325 3.79453203 C195.50256541 3.79053597 194.75835758 3.78653991 193.99159799 3.78242275 C191.50208202 3.77146865 189.01278906 3.7746469 186.52325393 3.77777216 C184.71879703 3.77276816 182.91434238 3.76689206 181.10989089 3.76021942 C176.15460866 3.74441807 171.19938314 3.74098866 166.24407876 3.73957083 C160.89921382 3.73587703 155.55437999 3.72072164 150.20953322 3.70695612 C140.95027509 3.68467885 131.69102801 3.66966836 122.43174887 3.65958902 C109.0443773 3.64500549 95.65704426 3.61946955 82.26969528 3.59125774 C60.54977658 3.54578385 38.82985234 3.5091715 17.10990859 3.47812006 C-3.98938517 3.44793697 -25.08866537 3.41358779 -46.18794297 3.37362787 C-47.48843398 3.37116632 -48.78892499 3.36870477 -50.12882482 3.36616863 C-56.65298557 3.35379408 -63.17714617 3.34133754 -69.70130669 3.32884023 C-123.82842497 3.22526349 -177.9555602 3.13606317 -232.08271836 3.05624506 C-231.75271836 2.39624506 -231.42271836 1.73624506 -231.08271836 1.05624506 C-162.75548665 0.66968405 -94.42806304 0.35703422 -26.10021596 0.10175046 C-17.40013858 0.06911681 -8.70006818 0.03499367 0 0 Z " fill="#3D685B" transform="translate(262.0827183648944,172.94375494122505)"/>
<path d="M0 0 C4.42898099 -0.14920123 8.85660173 -0.25760752 13.28735352 -0.32958984 C14.79184472 -0.35961832 16.29616297 -0.40045606 17.80004883 -0.45263672 C31.88833398 -0.92893937 31.88833398 -0.92893937 36.48828125 2.48828125 C39.22944853 5.53592282 39.81194491 8.29014077 39.76171875 12.32617188 C39.71660156 13.06416016 39.67148437 13.80214844 39.625 14.5625 C39.61855469 15.30435547 39.61210937 16.04621094 39.60546875 16.81054688 C39.4708391 21.257285 38.96805333 24.48932899 36 28 C33.3125 29.3125 33.3125 29.3125 31 30 C31.5053125 30.91523438 32.010625 31.83046875 32.53125 32.7734375 C33.18771927 33.97383845 33.8439573 35.17436587 34.5 36.375 C34.83386719 36.97828125 35.16773438 37.5815625 35.51171875 38.203125 C38 42.7734375 38 42.7734375 38 45 C39.32 45.33 40.64 45.66 42 46 C36.72 46 31.44 46 26 46 C23.37855309 41.01925087 21.36426912 36.45707649 20 31 C18.35 31 16.7 31 15 31 C15 35.62 15 40.24 15 45 C16.32 45.33 17.64 45.66 19 46 C12.4 46 5.8 46 -1 46 C-1 45.34 -1 44.68 -1 44 C0.32 44 1.64 44 3 44 C3 29.81 3 15.62 3 1 C2.01 0.67 1.02 0.34 0 0 Z " fill="#3F6D60" transform="translate(327,203)"/>
<path d="M0 0 C4.60809095 -0.09915614 9.21555592 -0.17160182 13.82446289 -0.21972656 C15.39097923 -0.23979558 16.95742109 -0.26705751 18.52368164 -0.30175781 C20.78029794 -0.35048754 23.03592083 -0.3730147 25.29296875 -0.390625 C25.98899704 -0.41127014 26.68502533 -0.43191528 27.40214539 -0.45318604 C32.2313238 -0.45539563 34.59521991 0.61145577 38 4 C40.45134136 7.44372729 40.2992322 10.79352511 40.3125 14.9375 C40.32925781 16.14277344 40.34601563 17.34804687 40.36328125 18.58984375 C39.8740551 23.18225692 38.3797501 25.78749233 34.9375 28.8125 C33 30 33 30 31 30 C31.5053125 30.83144531 32.010625 31.66289062 32.53125 32.51953125 C33.1809375 33.60621094 33.830625 34.69289062 34.5 35.8125 C35.1496875 36.89144531 35.799375 37.97039062 36.46875 39.08203125 C38 42 38 42 38 45 C39.65 45 41.3 45 43 45 C43 45.33 43 45.66 43 46 C37.39 46 31.78 46 26 46 C23.25 39.0625 23.25 39.0625 22.41113281 36.87524414 C21.62153662 34.87934191 21.62153662 34.87934191 20 32 C18.68 31.67 17.36 31.34 16 31 C16 35.29 16 39.58 16 44 C17.32 44 18.64 44 20 44 C20 44.66 20 45.32 20 46 C13.4 46 6.8 46 0 46 C1.98 45.505 1.98 45.505 4 45 C4 30.48 4 15.96 4 1 C2.68 0.67 1.36 0.34 0 0 Z " fill="#3E6C5E" transform="translate(371,203)"/>
<path d="M0 0 C4.58974462 -0.1241194 9.17850086 -0.21457876 13.76953125 -0.2746582 C15.32927479 -0.29971627 16.8889019 -0.33377301 18.44824219 -0.37719727 C20.69755843 -0.43824193 22.9453156 -0.46629426 25.1953125 -0.48828125 C25.8861795 -0.51408768 26.57704651 -0.5398941 27.28884888 -0.56648254 C31.13483987 -0.56868247 33.48776239 0.02667152 36.42529297 2.40551758 C40.36679653 6.3772944 40.26916202 9.38112811 40.375 14.75 C40.43107422 15.80574219 40.43107422 15.80574219 40.48828125 16.8828125 C40.55537242 20.89337357 40.17305918 23.29024077 37.6015625 26.453125 C35 29 35 29 33 30 C33.58423038 33.62736447 34.54685659 36.46779732 36.3125 39.6875 C36.72113281 40.45449219 37.12976563 41.22148437 37.55078125 42.01171875 C39.07225769 44.41894908 39.07225769 44.41894908 43 46 C37.39 46 31.78 46 26 46 C21 33.25 21 33.25 21 31 C19.35 31 17.7 31 16 31 C16 35.62 16 40.24 16 45 C17.32 45.33 18.64 45.66 20 46 C13.4 46 6.8 46 0 46 C1.98 45.505 1.98 45.505 4 45 C4 30.48 4 15.96 4 1 C2.68 0.67 1.36 0.34 0 0 Z " fill="#E41917" transform="translate(78,203)"/>
<path d="M0 0 C6.93 0 13.86 0 21 0 C23.26861292 8.99042898 25.50617705 17.98796527 27.6875 27 C27.90172607 27.87100342 28.11595215 28.74200684 28.33666992 29.6394043 C29.56658838 34.7556494 30.44872965 39.76596059 31 45 C32.32 45.33 33.64 45.66 35 46 C28.4 46 21.8 46 15 46 C16.98 45.505 16.98 45.505 19 45 C18.67 42.36 18.34 39.72 18 37 C13.38 37 8.76 37 4 37 C3.67 39.64 3.34 42.28 3 45 C4.32 45.33 5.64 45.66 7 46 C1.39 46 -4.22 46 -10 46 C-8.02 45.505 -8.02 45.505 -6 45 C-5.90348145 44.32807617 -5.80696289 43.65615234 -5.70751953 42.96386719 C-4.31098464 33.90534443 -2.14488431 25.11829252 0.125 16.25 C0.50174644 14.76313335 0.87805135 13.27615476 1.25390625 11.7890625 C2.1641978 8.19140684 3.0804081 4.59529118 4 1 C2.68 0.67 1.36 0.34 0 0 Z " fill="#3D6B5D" transform="translate(425,203)"/>
<path d="M0 0 C6.93 0 13.86 0 21 0 C26.84032372 23.18608518 26.84032372 23.18608518 29.375 33.75 C29.54225586 34.43312256 29.70951172 35.11624512 29.88183594 35.82006836 C30.64139895 39.02207566 31 41.67605016 31 45 C32.32 45.33 33.64 45.66 35 46 C28.4 46 21.8 46 15 46 C16.98 45.505 16.98 45.505 19 45 C18.67 42.36 18.34 39.72 18 37 C13.38 37 8.76 37 4 37 C3.67 39.64 3.34 42.28 3 45 C3.99 45.33 4.98 45.66 6 46 C0.72 46 -4.56 46 -10 46 C-8.02 45.505 -8.02 45.505 -6 45 C-5.89695557 44.31502441 -5.79391113 43.63004883 -5.68774414 42.92431641 C-4.43666824 34.99492513 -2.76156185 27.19553163 -0.91333008 19.38720703 C-0.43014431 17.34389398 0.04603748 15.29903244 0.52148438 13.25390625 C2.86011358 3.27977284 2.86011358 3.27977284 4 1 C2.68 0.67 1.36 0.34 0 0 Z " fill="#ED0E0B" transform="translate(212,203)"/>
<path d="M0 0 C1.74023438 0.00966797 1.74023438 0.00966797 3.515625 0.01953125 C4.7221875 0.03628906 5.92875 0.05304688 7.171875 0.0703125 C9.00492188 0.08384766 9.00492188 0.08384766 10.875 0.09765625 C13.89070866 0.12121647 16.90631658 0.15708711 19.921875 0.1953125 C19.921875 4.8153125 19.921875 9.4353125 19.921875 14.1953125 C19.426875 12.2153125 19.426875 12.2153125 18.921875 10.1953125 C11.991875 9.8653125 5.061875 9.5353125 -2.078125 9.1953125 C-2.078125 12.1653125 -2.078125 15.1353125 -2.078125 18.1953125 C-1.00433594 18.05351562 0.06945312 17.91171875 1.17578125 17.765625 C12.41339582 16.516269 12.41339582 16.516269 16.5078125 18.359375 C20.04702652 21.39085368 21.70427844 23.92303364 22.16015625 28.68359375 C22.31914876 34.7336773 22.15577259 38.49098184 17.921875 43.1953125 C14.59693175 46.28835802 12.33287116 46.55429774 7.84375 46.48828125 C6.68359375 46.47861328 5.5234375 46.46894531 4.328125 46.45898438 C3.1215625 46.43384766 1.915 46.40871094 0.671875 46.3828125 C-1.16117188 46.36250977 -1.16117188 46.36250977 -3.03125 46.34179688 C-6.04706321 46.30645531 -9.06264977 46.252649 -12.078125 46.1953125 C-12.078125 41.5753125 -12.078125 36.9553125 -12.078125 32.1953125 C-11.748125 33.5153125 -11.418125 34.8353125 -11.078125 36.1953125 C-9.8096875 36.17791016 -9.8096875 36.17791016 -8.515625 36.16015625 C-2.26251882 36.11041563 3.74193431 36.22591004 9.921875 37.1953125 C9.921875 34.2253125 9.921875 31.2553125 9.921875 28.1953125 C8.75269531 28.25332031 7.58351562 28.31132812 6.37890625 28.37109375 C4.8307692 28.41800699 3.28258883 28.46350548 1.734375 28.5078125 C0.96544922 28.54970703 0.19652344 28.59160156 -0.59570312 28.63476562 C-4.84078709 28.72586185 -6.5382831 28.61406836 -10.00390625 25.92578125 C-14.41641591 20.11722333 -14.93684776 15.43162256 -14.078125 8.1953125 C-10.74634151 1.41275325 -7.31311875 -0.07169724 0 0 Z " fill="#EC0F0C" transform="translate(178.078125,202.8046875)"/>
<path d="M0 0 C11.88 0 23.76 0 36 0 C36 4.62 36 9.24 36 14 C35.34 14 34.68 14 34 14 C34 12.35 34 10.7 34 9 C33.20335937 9.01160156 32.40671875 9.02320313 31.5859375 9.03515625 C21.06151142 9.12478032 21.06151142 9.12478032 16 8 C16 11.63 16 15.26 16 19 C17.2375 18.7525 17.2375 18.7525 18.5 18.5 C22.41272317 17.94103955 26.05183173 17.93192813 30 18 C30 20.97 30 23.94 30 27 C25.38 27 20.76 27 16 27 C16 30.3 16 33.6 16 37 C21.94 36.67 27.88 36.34 34 36 C34 34.35 34 32.7 34 31 C34.66 31 35.32 31 36 31 C36 35.95 36 40.9 36 46 C24.12 46 12.24 46 0 46 C1.98 45.505 1.98 45.505 4 45 C4 30.48 4 15.96 4 1 C2.68 0.67 1.36 0.34 0 0 Z " fill="#3F6D5F" transform="translate(286,203)"/>
<path d="M0 0 C0.90759162 -0.00170885 1.81518324 -0.0034177 2.75027764 -0.00517833 C5.7858392 -0.00846774 8.82117883 0.0025215 11.85671997 0.01345825 C14.03491714 0.01402248 16.21311469 0.01370557 18.39131165 0.01257324 C24.30195818 0.0119992 30.21252362 0.02376196 36.1231513 0.03772116 C42.30111118 0.05021984 48.47907289 0.05139834 54.65704346 0.05377197 C66.35475558 0.05998927 78.05243034 0.07640349 89.750126 0.09647095 C103.06802446 0.11882216 116.3859209 0.12982143 129.7038343 0.13986182 C157.09872967 0.16076947 184.49359187 0.19595034 211.88845825 0.24050903 C211.88845825 0.57050903 211.88845825 0.90050903 211.88845825 1.24050903 C140.27845825 1.57050903 68.66845825 1.90050903 -5.11154175 2.24050903 C138.43845825 2.57050903 281.98845825 2.90050903 429.88845825 3.24050903 C429.88845825 3.57050903 429.88845825 3.90050903 429.88845825 4.24050903 C428.96757671 4.2407264 428.04669518 4.24094377 427.09790814 4.24116772 C372.52705299 4.2544895 317.95626868 4.29415315 263.38545943 4.36736466 C256.83405043 4.37613148 250.28264115 4.38468127 243.73123169 4.39309692 C242.42695614 4.39477599 241.12268059 4.39645505 239.77888153 4.39818499 C218.65625799 4.42485963 197.53366158 4.43395041 176.41102292 4.43655046 C154.73955883 4.43960919 133.06817325 4.46154662 111.39674461 4.5010336 C98.02275534 4.52480627 84.64892275 4.53382832 71.27491526 4.52402214 C62.1056411 4.51870916 52.93650743 4.53172283 43.76727326 4.55917194 C38.47593647 4.57447018 33.18491406 4.58166496 27.89356804 4.56710625 C23.04717805 4.55395023 18.20139721 4.56385832 13.35507582 4.59194676 C11.60390879 4.59805443 9.85268763 4.59576947 8.10154857 4.5841383 C-5.26288602 4.48192256 -5.26288602 4.48192256 -17.11154175 10.24050903 C-25.3959854 18.81813452 -26.55667065 27.81698857 -26.58810425 39.31472778 C-26.60368378 40.5567244 -26.61926331 41.79872101 -26.63531494 43.07835388 C-26.67464091 46.35939048 -26.70207093 49.64021946 -26.72280884 52.92141724 C-26.75449331 57.55101143 -26.80606482 62.18040661 -26.85919189 66.80979919 C-26.88631796 69.26936604 -26.90771249 71.72900434 -26.92272949 74.18867493 C-26.93299164 75.3036586 -26.94325378 76.41864227 -26.9538269 77.56741333 C-26.9635704 79.0334626 -26.9635704 79.0334626 -26.97351074 80.52912903 C-27.10912031 83.1929441 -27.51826897 85.64366162 -28.11154175 88.24050903 C-28.77154175 88.24050903 -29.43154175 88.24050903 -30.11154175 88.24050903 C-31.4214916 85.62060933 -31.2458036 83.67426386 -31.25680542 80.74026489 C-31.26318527 79.58824081 -31.26956512 78.43621674 -31.27613831 77.24928284 C-31.27725113 75.99728592 -31.27836395 74.745289 -31.2795105 73.45535278 C-31.2828389 72.16996109 -31.2861673 70.8845694 -31.28959656 69.56022644 C-31.29559229 66.83230756 -31.29743627 64.10442037 -31.29684448 61.37649536 C-31.29674345 57.90224541 -31.3103319 54.42820255 -31.32761669 50.95400143 C-31.34150905 47.62111601 -31.34082853 44.28826671 -31.3420105 40.95535278 C-31.35278877 39.09861183 -31.35278877 39.09861183 -31.36378479 37.20436096 C-31.33218924 25.14701213 -29.69247357 16.12295765 -21.15060425 7.18972778 C-14.56388806 1.09512257 -8.7582484 -0.06056673 0 0 Z " fill="#647F76" transform="translate(36.111541748046875,172.75949096679688)"/>
<path d="M0 0 C11.55 0 23.1 0 35 0 C35 4.62 35 9.24 35 14 C34.67 14 34.34 14 34 14 C34 12.35 34 10.7 34 9 C32.948125 9.01740234 32.948125 9.01740234 31.875 9.03515625 C26.13886898 9.08971184 20.67221747 8.85618377 15 8 C15 11.63 15 15.26 15 19 C19.95 18.67 24.9 18.34 30 18 C30 20.97 30 23.94 30 27 C25.05 27 20.1 27 15 27 C15 30.63 15 34.26 15 38 C15.95261719 37.855625 16.90523437 37.71125 17.88671875 37.5625 C19.14097656 37.376875 20.39523438 37.19125 21.6875 37 C22.92886719 36.814375 24.17023438 36.62875 25.44921875 36.4375 C28.35886371 36.07899589 31.07700022 35.91057744 34 36 C34.33 34.68 34.66 33.36 35 32 C35 36.62 35 41.24 35 46 C23.45 46 11.9 46 0 46 C1.98 45.505 1.98 45.505 4 45 C4 30.48 4 15.96 4 1 C2.68 0.67 1.36 0.34 0 0 Z " fill="#ED0E0C" transform="translate(123,203)"/>
<path d="M0 0 C11.88 0 23.76 0 36 0 C36 4.62 36 9.24 36 14 C35.34 14 34.68 14 34 14 C34 12.35 34 10.7 34 9 C33.3709375 9.01160156 32.741875 9.02320313 32.09375 9.03515625 C26.61930912 9.09286873 21.41542194 8.80228473 16 8 C16 11.63 16 15.26 16 19 C17.65 18.67 19.3 18.34 21 18 C24.00834492 17.88043144 26.98728504 17.95503411 30 18 C30 20.97 30 23.94 30 27 C25.38 27 20.76 27 16 27 C16 32.94 16 38.88 16 45 C17.32 45.33 18.64 45.66 20 46 C13.4 46 6.8 46 0 46 C1.98 45.505 1.98 45.505 4 45 C4 30.48 4 15.96 4 1 C2.68 0.67 1.36 0.34 0 0 Z " fill="#E9120F" transform="translate(40,203)"/>
<path d="M0 0 C12.54 0 25.08 0 38 0 C38 4.95 38 9.9 38 15 C37.34 15 36.68 15 36 15 C36 13.35 36 11.7 36 10 C30.555 9.505 30.555 9.505 25 9 C25 21.21 25 33.42 25 46 C26.32 46.33 27.64 46.66 29 47 C22.4 47 15.8 47 9 47 C10.98 46.505 10.98 46.505 13 46 C13 33.79 13 21.58 13 9 C9.37 9.33 5.74 9.66 2 10 C2 11.65 2 13.3 2 15 C1.34 15 0.68 15 0 15 C0 10.05 0 5.1 0 0 Z " fill="#386A5B" transform="translate(246,202)"/>
<path d="M0 0 C1.74023438 0.00966797 1.74023438 0.00966797 3.515625 0.01953125 C4.7221875 0.03628906 5.92875 0.05304688 7.171875 0.0703125 C9.00492188 0.08384766 9.00492188 0.08384766 10.875 0.09765625 C13.89070866 0.12121647 16.90631658 0.15708711 19.921875 0.1953125 C19.921875 4.8153125 19.921875 9.4353125 19.921875 14.1953125 C19.426875 12.2153125 19.426875 12.2153125 18.921875 10.1953125 C11.991875 9.8653125 5.061875 9.5353125 -2.078125 9.1953125 C-2.078125 12.1653125 -2.078125 15.1353125 -2.078125 18.1953125 C-1.00433594 18.05351562 0.06945312 17.91171875 1.17578125 17.765625 C12.50696793 16.50999983 12.50696793 16.50999983 16.54296875 18.46484375 C18.421875 20.1328125 18.421875 20.1328125 20.921875 23.1953125 C20.426875 24.6803125 20.426875 24.6803125 19.921875 26.1953125 C19.468125 25.7209375 19.014375 25.2465625 18.546875 24.7578125 C16.98929296 23.10503442 16.98929296 23.10503442 14.921875 22.1953125 C14.921875 21.5353125 14.921875 20.8753125 14.921875 20.1953125 C8.981875 20.1953125 3.041875 20.1953125 -3.078125 20.1953125 C-3.408125 22.1753125 -3.738125 24.1553125 -4.078125 26.1953125 C-3.07910156 26.18371094 -2.08007812 26.17210937 -1.05078125 26.16015625 C0.23957031 26.15113281 1.52992188 26.14210937 2.859375 26.1328125 C4.14714844 26.12121094 5.43492187 26.10960937 6.76171875 26.09765625 C9.921875 26.1953125 9.921875 26.1953125 10.921875 27.1953125 C10.99393011 28.88140216 11.00573568 30.57031909 10.984375 32.2578125 C10.97535156 33.17691406 10.96632812 34.09601563 10.95703125 35.04296875 C10.94542969 35.75324219 10.93382812 36.46351563 10.921875 37.1953125 C10.591875 37.1953125 10.261875 37.1953125 9.921875 37.1953125 C9.921875 34.2253125 9.921875 31.2553125 9.921875 28.1953125 C8.75269531 28.25332031 7.58351562 28.31132812 6.37890625 28.37109375 C4.8307692 28.41800699 3.28258883 28.46350548 1.734375 28.5078125 C0.96544922 28.54970703 0.19652344 28.59160156 -0.59570312 28.63476562 C-4.84078709 28.72586185 -6.5382831 28.61406836 -10.00390625 25.92578125 C-14.41641591 20.11722333 -14.93684776 15.43162256 -14.078125 8.1953125 C-10.74634151 1.41275325 -7.31311875 -0.07169724 0 0 Z " fill="#E61411" transform="translate(178.078125,202.8046875)"/>
<path d="M0 0 C3.22909006 -0.05834353 6.45804338 -0.09371115 9.6875 -0.125 C10.59951172 -0.14175781 11.51152344 -0.15851563 12.45117188 -0.17578125 C22.54632666 -0.24920056 22.54632666 -0.24920056 26.78125 3.6328125 C28.51150845 6.99350681 28.51355717 10.18067158 28.5 13.875 C28.52835938 14.56980469 28.55671875 15.26460937 28.5859375 15.98046875 C28.60078851 19.9234108 28.04105834 22.43116436 25.59375 25.4453125 C23 28 23 28 21 29 C21.58423038 32.62736447 22.54685659 35.46779732 24.3125 38.6875 C24.72113281 39.45449219 25.12976563 40.22148437 25.55078125 41.01171875 C27.07225769 43.41894908 27.07225769 43.41894908 31 45 C25.39 45 19.78 45 14 45 C9.875 35.375 9.875 35.375 11 32 C11 32.66 11 33.32 11 34 C11.99 34 12.98 34 14 34 C14 35.32 14 36.64 14 38 C15.32 36.68 16.64 35.36 18 34 C17.71125 33.278125 17.4225 32.55625 17.125 31.8125 C16.08333333 29.20833333 15.04166667 26.60416667 14 24 C10.7 23.67 7.4 23.34 4 23 C4 22.34 4 21.68 4 21 C8.29 21 12.58 21 17 21 C17 16.38 17 11.76 17 7 C12.71 7 8.42 7 4 7 C4 5.35 4 3.7 4 2 C2.68 1.34 1.36 0.68 0 0 Z " fill="#E31817" transform="translate(90,204)"/>
<path d="M0 0 C6.93 0 13.86 0 21 0 C28.14893617 25.72340426 28.14893617 25.72340426 27 39 C27.66 39 28.32 39 29 39 C29 40.65 29 42.3 29 44 C26.36 44 23.72 44 21 44 C21 42.68 21 41.36 21 40 C20.34 40 19.68 40 19 40 C19.144375 39.443125 19.28875 38.88625 19.4375 38.3125 C19.623125 37.549375 19.80875 36.78625 20 36 C20.20625 35.175 20.4125 34.35 20.625 33.5 C21.01116611 30.92555924 20.94720625 29.41107045 20 27 C19.34 26.67 18.68 26.34 18 26 C16.375 24.6875 16.375 24.6875 15 23 C15 21.68 15 20.36 15 19 C14.34 19 13.68 19 13 19 C11.82428549 15.32589215 11.92633254 11.83070817 12 8 C11.01 8 10.02 8 9 8 C9 9.98 9 11.96 9 14 C7.68 13.67 6.36 13.34 5 13 C4.67 13.99 4.34 14.98 4 16 C3.67 16 3.34 16 3 16 C2.97306425 13.87506859 2.95363372 11.75004088 2.9375 9.625 C2.92589844 8.44164062 2.91429687 7.25828125 2.90234375 6.0390625 C3 3 3 3 4 1 C2.68 0.67 1.36 0.34 0 0 Z " fill="#EB0F0C" transform="translate(212,203)"/>
<path d="M0 0 C4.29 0 8.58 0 13 0 C13.22786458 3.22265625 13.45572917 6.4453125 13.68359375 9.66796875 C13.95403812 12.51598171 14.37521747 15.21210482 15 18 C16.65 18.33 18.3 18.66 20 19 C18.625 20.5 18.625 20.5 17 22 C16.34 22 15.68 22 15 22 C15.75796875 23.24716797 15.75796875 23.24716797 16.53125 24.51953125 C17.50578125 26.14955078 17.50578125 26.14955078 18.5 27.8125 C19.1496875 28.89144531 19.799375 29.97039062 20.46875 31.08203125 C22 34 22 34 22 37 C23.65 37 25.3 37 27 37 C27 37.33 27 37.66 27 38 C21.39 38 15.78 38 10 38 C7.25 31.125 7.25 31.125 6.41113281 28.96533203 C5.22413179 26.10261301 4.42330238 24.27769837 1.796875 22.5546875 C1.20390625 22.37164062 0.6109375 22.18859375 0 22 C3.37817425 21.15545644 5.67465243 20.89155081 9 22 C9.99 20.35 10.98 18.7 12 17 C11.01 17 10.02 17 9 17 C9 16.34 9 15.68 9 15 C6.03 15 3.06 15 0 15 C0 10.05 0 5.1 0 0 Z " fill="#467064" transform="translate(387,211)"/>
<path d="M0 0 C11.55 0 23.1 0 35 0 C35 4.62 35 9.24 35 14 C34.67 14 34.34 14 34 14 C34 12.35 34 10.7 34 9 C32.948125 9.01740234 32.948125 9.01740234 31.875 9.03515625 C26.13886898 9.08971184 20.67221747 8.85618377 15 8 C15 7.34 15 6.68 15 6 C16.01320312 6.06960937 16.01320312 6.06960937 17.046875 6.140625 C17.93890625 6.17671875 18.8309375 6.2128125 19.75 6.25 C21.07257813 6.31960937 21.07257813 6.31960937 22.421875 6.390625 C25.62486722 6.16606483 25.62486722 6.16606483 29 2 C21.41 2 13.82 2 6 2 C6 15.86 6 29.72 6 44 C9.96 44 13.92 44 18 44 C18 43.34 18 42.68 18 42 C18.66 42 19.32 42 20 42 C20 41.34 20 40.68 20 40 C18.02 39.67 16.04 39.34 14 39 C14 35.04 14 31.08 14 27 C14.33 27 14.66 27 15 27 C15 30.63 15 34.26 15 38 C15.95261719 37.855625 16.90523437 37.71125 17.88671875 37.5625 C19.14097656 37.376875 20.39523438 37.19125 21.6875 37 C22.92886719 36.814375 24.17023438 36.62875 25.44921875 36.4375 C28.35886371 36.07899589 31.07700022 35.91057744 34 36 C34.33 34.68 34.66 33.36 35 32 C35 36.62 35 41.24 35 46 C23.45 46 11.9 46 0 46 C1.98 45.505 1.98 45.505 4 45 C4 30.48 4 15.96 4 1 C2.68 0.67 1.36 0.34 0 0 Z " fill="#D31B19" transform="translate(123,203)"/>
<path d="M0 0 C0.99 0.66 1.98 1.32 3 2 C3.66 1.67 4.32 1.34 5 1 C5 12.55 5 24.1 5 36 C4.505 34.515 4.505 34.515 4 33 C3.34 33 2.68 33 2 33 C2 33.66 2 34.32 2 35 C-1 37 -1 37 -5 37 C-5.12397147 32.53435699 -5.21450992 28.06963561 -5.2746582 23.6027832 C-5.29974109 22.08470199 -5.3338166 20.56674082 -5.37719727 19.04907227 C-5.43813293 16.86184035 -5.46626895 14.67620961 -5.48828125 12.48828125 C-5.51446533 11.17384033 -5.54064941 9.85939941 -5.56762695 8.50512695 C-4.86658742 4.17617013 -3.32839137 2.7387248 0 0 Z " fill="#396A5C" transform="translate(265,209)"/>
<path d="M0 0 C0.33 0 0.66 0 1 0 C1 4.95 1 9.9 1 15 C0.01 15.33 -0.98 15.66 -2 16 C-2.66 15.67 -3.32 15.34 -4 15 C-3.814375 15.66 -3.62875 16.32 -3.4375 17 C-2.86972692 20.89330114 -3.40718293 24.11375479 -4 28 C-7.96 28.33 -11.92 28.66 -16 29 C-16.66 30.98 -17.32 32.96 -18 35 C-10.22407225 35.45658934 -10.22407225 35.45658934 -3 33 C-2.67 32.34 -2.34 31.68 -2 31 C-1.01 31 -0.02 31 1 31 C1 35.95 1 40.9 1 46 C0.67 46 0.34 46 0 46 C-0.495 41.05 -0.495 41.05 -1 36 C-1.95261719 36.144375 -2.90523437 36.28875 -3.88671875 36.4375 C-5.14097656 36.623125 -6.39523438 36.80875 -7.6875 37 C-8.92886719 37.185625 -10.17023438 37.37125 -11.44921875 37.5625 C-15 38 -15 38 -20 38 C-20 34.37 -20 30.74 -20 27 C-15.05 27 -10.1 27 -5 27 C-5 24.03 -5 21.06 -5 18 C-6.485 18.2475 -6.485 18.2475 -8 18.5 C-12.02732942 19.08474517 -15.93474623 19.07132024 -20 19 C-20 15.37 -20 11.74 -20 8 C-13.73 8.33 -7.46 8.66 -1 9 C-0.67 6.03 -0.34 3.06 0 0 Z " fill="#FCDDDD" transform="translate(158,203)"/>
<path d="M0 0 C0.99 0 1.98 0 3 0 C2.89235108 8.38867501 2.77968814 16.77726144 2.66066074 25.16578197 C2.60554568 29.06109556 2.55214433 32.9564168 2.50268555 36.85180664 C2.4548731 40.61252991 2.40252491 44.37316543 2.34705925 48.13378334 C2.32671197 49.56703818 2.30798663 51.00031701 2.29092598 52.43361473 C2.26671263 54.44432523 2.23614713 56.45495617 2.20532227 58.46557617 C2.18977798 59.60919113 2.1742337 60.75280609 2.15821838 61.93107605 C2.01402511 64.72795823 1.63416885 67.27726706 1 70 C0.34 70 -0.32 70 -1 70 C-2.30994985 67.3801003 -2.13426185 65.43375483 -2.14526367 62.49975586 C-2.15164352 61.34773178 -2.15802338 60.1957077 -2.16459656 59.0087738 C-2.16570938 57.75677689 -2.1668222 56.50477997 -2.16796875 55.21484375 C-2.17129715 53.92945206 -2.17462555 52.64406036 -2.17805481 51.31971741 C-2.18405054 48.59179853 -2.18589453 45.86391133 -2.18530273 43.13598633 C-2.1852017 39.66173637 -2.19879015 36.18769352 -2.21607494 32.71349239 C-2.2299673 29.38060698 -2.22928678 26.04775767 -2.23046875 22.71484375 C-2.24124702 20.8581028 -2.24124702 20.8581028 -2.25224304 18.96385193 C-2.23482319 12.3161671 -1.73795734 6.42359709 0 0 Z " fill="#40675A" transform="translate(7,191)"/>
<path d="M0 0 C1.32 0 2.64 0 4 0 C4.88265039 3.78654642 5.12156737 7.28295998 5.11352539 11.16723633 C5.11341209 12.99856865 5.11341209 12.99856865 5.11329651 14.86689758 C5.10813522 16.17539169 5.10297394 17.4838858 5.09765625 18.83203125 C5.09578961 20.19251961 5.09436687 21.55300865 5.09336853 22.91349792 C5.08956275 26.48255287 5.07974914 30.05156669 5.06866455 33.62060547 C5.05840863 37.26724695 5.05386197 40.91389511 5.04882812 44.56054688 C5.03812503 51.70704801 5.02107204 58.85352131 5 66 C3.68 65.67 2.36 65.34 1 65 C0.67 43.55 0.34 22.1 0 0 Z " fill="#3E6359" transform="translate(490,194)"/>
<path d="M0 0 C3.22909006 -0.05834353 6.45804338 -0.09371115 9.6875 -0.125 C10.59951172 -0.14175781 11.51152344 -0.15851563 12.45117188 -0.17578125 C21.40279157 -0.24088394 21.40279157 -0.24088394 25 2 C25.8125 5.125 25.8125 5.125 26 8 C26.33 8 26.66 8 27 8 C27.08107583 9.93681161 27.13922475 11.8745934 27.1875 13.8125 C27.23970703 15.43091797 27.23970703 15.43091797 27.29296875 17.08203125 C27 20 27 20 25.80078125 21.94921875 C24 23 24 23 19 22 C19 17.05 19 12.1 19 7 C14.05 6.67 9.1 6.34 4 6 C4 4.68 4 3.36 4 2 C2.68 1.34 1.36 0.68 0 0 Z " fill="#EB0F0C" transform="translate(90,204)"/>
<path d="M0 0 C5.94 0.33 11.88 0.66 18 1 C18 2.65 18 4.3 18 6 C18.66 6.33 19.32 6.66 20 7 C19.03320312 7.32097656 19.03320312 7.32097656 18.046875 7.6484375 C15.72160885 8.8473523 15.72160885 8.8473523 15.390625 11.6015625 C15.32101563 13.09816406 15.32101563 13.09816406 15.25 14.625 C15.1675 16.39875 15.085 18.1725 15 20 C10.38 20 5.76 20 1 20 C1 24.95 1 29.9 1 35 C1.99 35 2.98 35 4 35 C4 35.66 4 36.32 4 37 C2.68 37 1.36 37 0 37 C0 31.06 0 25.12 0 19 C4.62 19 9.24 19 14 19 C14 16.03 14 13.06 14 10 C9.38 10.33 4.76 10.66 0 11 C0 7.37 0 3.74 0 0 Z " fill="#FCEAE8" transform="translate(56,211)"/>
<path d="M0 0 C0.33 0 0.66 0 1 0 C1.33 2.31 1.66 4.62 2 7 C2.33 6.34 2.66 5.68 3 5 C4.32 5.33 5.64 5.66 7 6 C7 4.02 7 2.04 7 0 C7.99 0 8.98 0 10 0 C10.50567729 2.56149628 11.00470132 5.12399465 11.5 7.6875 C11.64308594 8.40873047 11.78617188 9.12996094 11.93359375 9.87304688 C12.65571887 13.63841359 13.1824976 17.14473813 13 21 C11.37581255 21.08090971 9.75048255 21.13914995 8.125 21.1875 C7.22007812 21.22230469 6.31515625 21.25710937 5.3828125 21.29296875 C4.20332031 21.14794922 4.20332031 21.14794922 3 21 C1.66666667 19 0.33333333 17 -1 15 C-1.66 15.66 -2.32 16.32 -3 17 C-2.54775239 11.08507728 -1.8417395 5.64800112 0 0 Z " fill="#E31614" transform="translate(214,211)"/>
<path d="M0 0 C11.88 0 23.76 0 36 0 C36 4.62 36 9.24 36 14 C35.34 14 34.68 14 34 14 C34 12.35 34 10.7 34 9 C30.7 9 27.4 9 24 9 C24 8.67 24 8.34 24 8 C26.64 8 29.28 8 32 8 C32.66 5.69 33.32 3.38 34 1 C32.081875 1.2475 32.081875 1.2475 30.125 1.5 C22.11038747 2.32230851 14.04571278 2.07887954 6 2 C6.00523682 2.98282959 6.01047363 3.96565918 6.01586914 4.97827148 C6.03411898 8.66283235 6.04550427 12.3473893 6.05493164 16.03198242 C6.05992654 17.61955439 6.06672475 19.20712183 6.07543945 20.79467773 C6.16225376 37.02895258 6.16225376 37.02895258 5 45 C8.3 45 11.6 45 15 45 C15 39.06 15 33.12 15 27 C15.33 27 15.66 27 16 27 C16 32.94 16 38.88 16 45 C17.32 45.33 18.64 45.66 20 46 C13.4 46 6.8 46 0 46 C1.98 45.505 1.98 45.505 4 45 C4 30.48 4 15.96 4 1 C2.68 0.67 1.36 0.34 0 0 Z " fill="#D42B29" transform="translate(40,203)"/>
<path d="M0 0 C0.33 0 0.66 0 1 0 C1.00142502 0.76706268 1.00285004 1.53412537 1.00431824 2.32443237 C1.02222751 9.59143152 1.06407309 16.8577292 1.13209057 24.12441826 C1.16622559 27.85939264 1.19144927 31.59396388 1.19555664 35.32910156 C1.19986897 38.94105193 1.2285699 42.55209498 1.27343178 46.16376114 C1.28631411 47.53423887 1.29074766 48.90482571 1.28615379 50.27535629 C1.26237813 59.5315111 2.1022561 67.40857328 8.40690613 74.60617065 C11.85000108 77.72851414 15.72033321 79.37372662 20 81 C19.67 82.32 19.34 83.64 19 85 C20.32 85.33 21.64 85.66 23 86 C14.37391826 85.53788848 9.03347153 82.44994819 3.1875 76.125 C-0.35010707 71.85241064 -3 67.70499761 -3 62 C-2.34 62 -1.68 62 -1 62 C-0.67 41.54 -0.34 21.08 0 0 Z " fill="#65897D" transform="translate(9,199)"/>
<path d="M0 0 C0.33 0 0.66 0 1 0 C1.33 20.13 1.66 40.26 2 61 C2.66 61 3.32 61 4 61 C3.71131966 68.93870944 0.73541835 74.06798068 -4.70703125 79.796875 C-8.47500854 83.2331342 -12.14000626 85.44113408 -17 87 C-19.4375 86.6875 -19.4375 86.6875 -21 86 C-20.01 86 -19.02 86 -18 86 C-18.33 84.68 -18.66 83.36 -19 82 C-18.33613281 81.70867187 -17.67226563 81.41734375 -16.98828125 81.1171875 C-9.72611514 77.74584615 -5.96294626 75.04293106 -2.40307617 67.7109375 C-0.15835344 61.49900153 -0.51798419 54.95983586 -0.48828125 48.4375 C-0.47140995 47.03644258 -0.45325646 45.63540007 -0.43388367 44.234375 C-0.38664283 40.57172304 -0.35666692 36.90913154 -0.33044434 33.24627686 C-0.30050688 29.49869855 -0.25402235 25.75132811 -0.20898438 22.00390625 C-0.12324677 14.66937458 -0.05577142 7.3348273 0 0 Z " fill="#668A7F" transform="translate(490,198)"/>
<path d="M0 0 C7.59 0 15.18 0 23 0 C21 4 21 4 19.375 4.8125 C15.81910301 5.09322871 12.52592181 4.52888827 9 4 C8.95101562 4.75925781 8.90203125 5.51851562 8.8515625 6.30078125 C8.77679688 7.29464844 8.70203125 8.28851563 8.625 9.3125 C8.55539063 10.29863281 8.48578125 11.28476563 8.4140625 12.30078125 C8 15 8 15 6 18 C5.61500109 19.65549531 5.27206865 21.3222433 5 23 C4.34 23 3.68 23 3 23 C3 21.02 3 19.04 3 17 C2.01 17 1.02 17 0 17 C0 11.39 0 5.78 0 0 Z " fill="#EE0E0A" transform="translate(129,205)"/>
<path d="M0 0 C0.33 0 0.66 0 1 0 C1 3.3 1 6.6 1 10 C6.94 9.67 12.88 9.34 19 9 C19 7.35 19 5.7 19 4 C19.66 4 20.32 4 21 4 C21 8.95 21 13.9 21 19 C14.07 18.67 7.14 18.34 0 18 C0.33 16.02 0.66 14.04 1 12 C0.67 11.67 0.34 11.34 0 11 C-0.07226502 9.14712498 -0.0838122 7.29166122 -0.0625 5.4375 C-0.05347656 4.42558594 -0.04445313 3.41367188 -0.03515625 2.37109375 C-0.02355469 1.58863281 -0.01195312 0.80617187 0 0 Z " fill="#487366" transform="translate(301,230)"/>
<path d="M0 0 C0.33 0 0.66 0 1 0 C1 4.95 1 9.9 1 15 C0.01 15.33 -0.98 15.66 -2 16 C-2.66 15.67 -3.32 15.34 -4 15 C-4 15.99 -4 16.98 -4 18 C-9.94 18 -15.88 18 -22 18 C-22 15.03 -22 12.06 -22 9 C-14.90272572 8.89191968 -8.03905044 9.06145994 -1 10 C-0.67 6.7 -0.34 3.4 0 0 Z " fill="#FDEEED" transform="translate(198,203)"/>
<path d="M0 0 C4.29 0 8.58 0 13 0 C13 4.62 13 9.24 13 14 C8.71 14 4.42 14 0 14 C0 9.38 0 4.76 0 0 Z " fill="#FDF0EF" transform="translate(94,211)"/>
<path d="M0 0 C4.29 0 8.58 0 13 0 C13 4.62 13 9.24 13 14 C8.71 14 4.42 14 0 14 C0 9.38 0 4.76 0 0 Z " fill="#F6FCFC" transform="translate(342,211)"/>
<path d="M0 0 C0.66 1.32 1.32 2.64 2 4 C2.66 4.66 3.32 5.32 4 6 C5.99897349 7.99897349 7.10957103 9.3287131 8 12 C7.66052758 15.39472417 6.64956143 18.03078942 5 21 C5.66 21 6.32 21 7 21 C7 22.32 7 23.64 7 25 C9.64 25 12.28 25 15 25 C15 23.35 15 21.7 15 20 C14.34 20 13.68 20 13 20 C13 17.03 13 14.06 13 11 C14.74325447 13.6148817 15.41587957 15.0053433 16.125 17.9375 C16.29257813 18.60652344 16.46015625 19.27554688 16.6328125 19.96484375 C17 22 17 22 17 26 C18.32 26.33 19.64 26.66 21 27 C14.4 27 7.8 27 1 27 C2.32 26.67 3.64 26.34 5 26 C4.67 23.36 4.34 20.72 4 18 C-0.62 18 -5.24 18 -10 18 C-10 17.67 -10 17.34 -10 17 C-6.7 16.67 -3.4 16.34 0 16 C0 14.68 0 13.36 0 12 C-2.64 11.67 -5.28 11.34 -8 11 C-8 10.67 -8 10.34 -8 10 C-5.03 10 -2.06 10 1 10 C0.67 6.7 0.34 3.4 0 0 Z " fill="#E11616" transform="translate(226,222)"/>
<path d="M0 0 C3.96 0 7.92 0 12 0 C12 4.62 12 9.24 12 14 C8.04 14 4.08 14 0 14 C0 9.38 0 4.76 0 0 Z " fill="#F9FEFE" transform="translate(387,211)"/>
<path d="M0 0 C19.36838279 -1.01111047 19.36838279 -1.01111047 27 5 C31.02094692 8.82364158 34.87354959 12.80082874 37 18 C37 18.99 37 19.98 37 21 C35.68 21.33 34.36 21.66 33 22 C32.731875 21.41992188 32.46375 20.83984375 32.1875 20.2421875 C27.82184685 11.53960261 22.67464499 7.72644065 13.5 4.625 C11.67120214 4.06821253 9.83927678 3.52112842 8 3 C8 2.67 8 2.34 8 2 C5.36 1.67 2.72 1.34 0 1 C0 0.67 0 0.34 0 0 Z " fill="#4A7164" transform="translate(456,173)"/>
<path d="M0 0 C0.33 0 0.66 0 1 0 C1.62460568 9.75078864 1.62460568 9.75078864 -0.75 14.5 C-5.54276769 19.82529743 -5.54276769 19.82529743 -9.84082031 20.34057617 C-11.44328613 20.3170105 -11.44328613 20.3170105 -13.078125 20.29296875 C-14.23828125 20.28330078 -15.3984375 20.27363281 -16.59375 20.26367188 C-17.8003125 20.23853516 -19.006875 20.21339844 -20.25 20.1875 C-22.08304688 20.16719727 -22.08304688 20.16719727 -23.953125 20.14648438 C-26.96893821 20.11114281 -29.98452477 20.0573365 -33 20 C-33 15.38 -33 10.76 -33 6 C-32.67 7.32 -32.34 8.64 -32 10 C-30.7315625 9.98259766 -30.7315625 9.98259766 -29.4375 9.96484375 C-23.18439382 9.91510313 -17.17994069 10.03059754 -11 11 C-11 11.33 -11 11.66 -11 12 C-17.93 12 -24.86 12 -32 12 C-32 13.98 -32 15.96 -32 18 C-23.42 18 -14.84 18 -6 18 C-6 17.34 -6 16.68 -6 16 C-5.34 16 -4.68 16 -4 16 C-3.34 13.03 -2.68 10.06 -2 7 C-1.34 7 -0.68 7 0 7 C0 4.69 0 2.38 0 0 Z " fill="#C42826" transform="translate(199,229)"/>
<path d="M0 0 C0.33 0 0.66 0 1 0 C1 14.52 1 29.04 1 44 C11.23 44.33 21.46 44.66 32 45 C32 45.33 32 45.66 32 46 C13.85 46 -4.3 46 -23 46 C-25.25 40.375 -25.25 40.375 -24 37 C-22.74335022 39.90600261 -22 41.79604584 -22 45 C-15.565 44.505 -15.565 44.505 -9 44 C-9.33 43.34 -9.66 42.68 -10 42 C-7.03 42 -4.06 42 -1 42 C-0.67 28.14 -0.34 14.28 0 0 Z " fill="#FDCBC8" transform="translate(126,204)"/>
<path d="M0 0 C0.33 0 0.66 0 1 0 C1 11.55 1 23.1 1 35 C3.31 34.34 5.62 33.68 8 33 C8 32.34 8 31.68 8 31 C8.66 31 9.32 31 10 31 C10.33 20.77 10.66 10.54 11 0 C11.33 0 11.66 0 12 0 C12 12.21 12 24.42 12 37 C13.32 37.33 14.64 37.66 16 38 C9.4 38 2.8 38 -4 38 C-2.02 37.505 -2.02 37.505 0 37 C0 24.79 0 12.58 0 0 Z " fill="#55766C" transform="translate(259,211)"/>
<path d="M0 0 C5.2166302 7.87746171 5.2166302 7.87746171 4.3125 12.5625 C3.6628125 13.7690625 3.6628125 13.7690625 3 15 C2.01 15 1.02 15 0 15 C0 13.68 0 12.36 0 11 C-0.99 11 -1.98 11 -3 11 C-3.33 9.35 -3.66 7.7 -4 6 C-6.97 5.505 -6.97 5.505 -10 5 C-10 3.68 -10 2.36 -10 1 C-6.52674819 -0.1577506 -3.63932552 -0.06866652 0 0 Z " fill="#ED0E0A" transform="translate(104,227)"/>
<path d="M0 0 C0.66 0 1.32 0 2 0 C3.78409802 3.06246747 4.22880021 5.22079273 4.125 8.75 C4.10695312 9.54921875 4.08890625 10.3484375 4.0703125 11.171875 C4.03550781 12.07679688 4.03550781 12.07679688 4 13 C4.66 13 5.32 13 6 13 C6 14.65 6 16.3 6 18 C3.36 18 0.72 18 -2 18 C-2 16.68 -2 15.36 -2 14 C-2.66 14 -3.32 14 -4 14 C-3.125 10.125 -3.125 10.125 -2 9 C-1.79395915 7.67218122 -1.6337041 6.33704105 -1.5 5 C-1.11111111 1.11111111 -1.11111111 1.11111111 0 0 Z " fill="#EE0E0C" transform="translate(235,229)"/>
<path d="M0 0 C0.66 0 1.32 0 2 0 C2.50643553 2.22771342 3.0048962 4.45724076 3.5 6.6875 C3.7784375 7.92886719 4.056875 9.17023438 4.34375 10.44921875 C4.89354126 13.42398218 5.13795705 15.99368602 5 19 C2.03 19 -0.94 19 -4 19 C-2.89309248 12.59406714 -1.66054831 6.28636144 0 0 Z " fill="#FDE5E5" transform="translate(222,213)"/>
<path d="M0 0 C12.54 0 25.08 0 38 0 C38 0.33 38 0.66 38 1 C30.64825496 1.92773877 23.34049273 2.30192149 15.9375 2.5625 C14.20983398 2.62727539 14.20983398 2.62727539 12.44726562 2.69335938 C9.63160509 2.79850852 6.81587024 2.90065393 4 3 C3.67 3.66 3.34 4.32 3 5 C2.34 5 1.68 5 1 5 C1 6.32 1 7.64 1 9 C3.31 9 5.62 9 8 9 C8 9.33 8 9.66 8 10 C6.02 10 4.04 10 2 10 C2 11.65 2 13.3 2 15 C1.34 15 0.68 15 0 15 C0 10.05 0 5.1 0 0 Z " fill="#6F8E85" transform="translate(246,202)"/>
<path d="M0 0 C0.33 0 0.66 0 1 0 C1.67099984 2.60311992 2.33695338 5.20735398 3 7.8125 C3.19078125 8.55048828 3.3815625 9.28847656 3.578125 10.04882812 C4.35262914 13.10535341 5 15.83373478 5 19 C2.03 19 -0.94 19 -4 19 C-3.52014751 12.18609459 -2.44850745 6.37535902 0 0 Z " fill="#E6F0EF" transform="translate(436,213)"/>
<path d="M0 0 C6.93 0 13.86 0 21 0 C22.00875786 3.87290966 23.00726851 7.74798107 24 11.625 C24.28617188 12.71941406 24.57234375 13.81382812 24.8671875 14.94140625 C25.13789063 16.00488281 25.40859375 17.06835938 25.6875 18.1640625 C25.93886719 19.13811035 26.19023437 20.1121582 26.44921875 21.11572266 C27.02726747 24.1427916 27.09569811 26.9256982 27 30 C25 29 25 29 24 26 C23.34 25.67 22.68 25.34 22 25 C22.02320313 24.21496094 22.04640625 23.42992187 22.0703125 22.62109375 C22.17341923 16.61880895 22.00462635 11.66012145 20 6 C19.67 4.68 19.34 3.36 19 2 C12.07 1.505 12.07 1.505 5 1 C4.67 2.98 4.34 4.96 4 7 C2.875 3.25 2.875 3.25 4 1 C2.68 0.67 1.36 0.34 0 0 Z " fill="#C82626" transform="translate(212,203)"/>
<path d="M0 0 C0.33 0 0.66 0 1 0 C1 3.63 1 7.26 1 11 C5.95 10.67 10.9 10.34 16 10 C16 12.97 16 15.94 16 19 C11.05 19 6.1 19 1 19 C1 18.67 1 18.34 1 18 C5.29 18 9.58 18 14 18 C14 16.02 14 14.04 14 12 C12.20759337 12.11389875 10.41605165 12.24147687 8.625 12.375 C7.62726563 12.44460937 6.62953125 12.51421875 5.6015625 12.5859375 C2.84491121 12.76363964 2.84491121 12.76363964 1 15 C-0.32 15 -1.64 15 -3 15 C-2.125 10.125 -2.125 10.125 -1 9 C-0.76807135 7.48530552 -0.58784762 5.96245438 -0.4375 4.4375 C-0.35371094 3.61121094 -0.26992187 2.78492188 -0.18359375 1.93359375 C-0.12300781 1.29550781 -0.06242188 0.65742188 0 0 Z " fill="#D52421" transform="translate(137,211)"/>
<path d="M0 0 C0.66 0.33 1.32 0.66 2 1 C2 1.99 2 2.98 2 4 C-9.88 4 -21.76 4 -34 4 C-34 3.34 -34 2.68 -34 2 C-22.78 2 -11.56 2 0 2 C0 1.34 0 0.68 0 0 Z " fill="#FEC2C1" transform="translate(74,199)"/>
<path d="M0 0 C0.33 0 0.66 0 1 0 C1 4.62 1 9.24 1 14 C5.20984119 13.9399452 9.41617056 13.85287256 13.625 13.75 C14.81480469 13.73582031 16.00460938 13.72164062 17.23046875 13.70703125 C25.89644856 13.47372116 25.89644856 13.47372116 33 9 C32.30859375 11.41796875 32.30859375 11.41796875 31 14 C22.02073509 17.86222465 9.62253224 16.18117739 0 16 C0 10.72 0 5.44 0 0 Z " fill="#FEE4E2" transform="translate(165,235)"/>
<path d="M0 0 C0.99386719 0.00902344 1.98773438 0.01804688 3.01171875 0.02734375 C4.15060547 0.04474609 4.15060547 0.04474609 5.3125 0.0625 C5.3125 4.0625 5.3125 4.0625 4.3125 7.0625 C1.0125 7.0625 -2.2875 7.0625 -5.6875 7.0625 C-4.6975 6.7325 -3.7075 6.4025 -2.6875 6.0625 C-2.6875 5.4025 -2.6875 4.7425 -2.6875 4.0625 C-4.0075 4.3925 -5.3275 4.7225 -6.6875 5.0625 C-7.3475 3.7425 -8.0075 2.4225 -8.6875 1.0625 C-5.53819107 0.01273036 -3.29935544 -0.03881595 0 0 Z " fill="#38695A" transform="translate(308.6875,221.9375)"/>
<path d="M0 0 C0.33 0 0.66 0 1 0 C1.23268915 6.28260706 0.40454548 11.88019467 -1 18 C-0.01 18.33 0.98 18.66 2 19 C2.28875 18.195625 2.5775 17.39125 2.875 16.5625 C4 14 4 14 6 13 C5.67 15.31 5.34 17.62 5 20 C5.99 20.33 6.98 20.66 8 21 C2.72 21 -2.56 21 -8 21 C-6.68 20.67 -5.36 20.34 -4 20 C-3.87882813 19.2265625 -3.75765625 18.453125 -3.6328125 17.65625 C-2.67147688 11.68117941 -1.57340459 5.84407421 0 0 Z " fill="#C92626" transform="translate(210,228)"/>
<path d="M0 0 C2 1 2 1 2.6328125 2.84765625 C2.87644531 3.94400391 2.87644531 3.94400391 3.125 5.0625 C3.29257813 5.79597656 3.46015625 6.52945313 3.6328125 7.28515625 C3.75398438 7.85105469 3.87515625 8.41695312 4 9 C4.99 9 5.98 9 7 9 C7 10.98 7 12.96 7 15 C-0.26 15 -7.52 15 -15 15 C-14.67 14.01 -14.34 13.02 -14 12 C-8.72 12 -3.44 12 2 12 C1.67 10.7625 1.34 9.525 1 8.25 C0.20108841 5.25408155 0 3.19892281 0 0 Z " fill="#FEEDEB" transform="translate(241,236)"/>
<path d="M0 0 C0.33 0 0.66 0 1 0 C1.44616681 6.96515961 1.69925348 11.60967983 -3 17 C-5 19 -5 19 -7.70556641 19.22705078 C-8.82624512 19.21657715 -9.94692383 19.20610352 -11.1015625 19.1953125 C-12.91914063 19.18564453 -12.91914063 19.18564453 -14.7734375 19.17578125 C-16.04445312 19.15902344 -17.31546875 19.14226562 -18.625 19.125 C-19.90375 19.11597656 -21.1825 19.10695312 -22.5 19.09765625 C-25.66685167 19.07402303 -28.83333424 19.04107629 -32 19 C-32 18.67 -32 18.34 -32 18 C-23.42 18 -14.84 18 -6 18 C-6 17.34 -6 16.68 -6 16 C-5.34 16 -4.68 16 -4 16 C-3.34 13.03 -2.68 10.06 -2 7 C-1.34 7 -0.68 7 0 7 C0 4.69 0 2.38 0 0 Z " fill="#DA221F" transform="translate(199,229)"/>
<path d="M0 0 C0.33 0 0.66 0 1 0 C1 2.97 1 5.94 1 9 C2.07378906 8.85820312 3.14757812 8.71640625 4.25390625 8.5703125 C15.58509293 7.31468733 15.58509293 7.31468733 19.62109375 9.26953125 C21.5 10.9375 21.5 10.9375 24 14 C23.67 14.99 23.34 15.98 23 17 C22.54625 16.525625 22.0925 16.05125 21.625 15.5625 C20.06741796 13.90972192 20.06741796 13.90972192 18 13 C18 12.34 18 11.68 18 11 C12.06 10.67 6.12 10.34 0 10 C0 6.7 0 3.4 0 0 Z " fill="#D52323" transform="translate(175,212)"/>
<path d="M0 0 C0.33 0.66 0.66 1.32 1 2 C1.66 2.33 2.32 2.66 3 3 C3 4.32 3 5.64 3 7 C3.66 7 4.32 7 5 7 C5 8.32 5 9.64 5 11 C7.97 11 10.94 11 14 11 C13.67 9.35 13.34 7.7 13 6 C14.70840281 7.63412443 15.93453047 8.86906094 17 11 C18.32 11.66 19.64 12.32 21 13 C15.39 13 9.78 13 4 13 C0 3.375 0 3.375 0 0 Z " fill="#C72728" transform="translate(100,236)"/>
<path d="M0 0 C8.91 0 17.82 0 27 0 C27 0.66 27 1.32 27 2 C17.76 2.33 8.52 2.66 -1 3 C-0.67 2.01 -0.34 1.02 0 0 Z " fill="#FEC5C3" transform="translate(171,201)"/>
<path d="M0 0 C1.32 0 2.64 0 4 0 C4 14.52 4 29.04 4 44 C2.68 44 1.36 44 0 44 C0 43.34 0 42.68 0 42 C0.99 42 1.98 42 3 42 C2.90649704 36.50042961 2.8004103 31.00130113 2.68261719 25.50219727 C2.64431706 23.63117132 2.609466 21.76007147 2.578125 19.88891602 C2.53249676 17.20041481 2.47449912 14.51242277 2.4140625 11.82421875 C2.40251129 10.98662521 2.39096008 10.14903168 2.37905884 9.28605652 C2.27953543 5.37626963 2.2152698 3.3229047 0 0 Z " fill="#FDEAE9" transform="translate(78,204)"/>
<path d="M0 0 C0 2.31 0 4.62 0 7 C-2.97 7 -5.94 7 -9 7 C-9 5.02 -9 3.04 -9 1 C-1.125 0 -1.125 0 0 0 Z " fill="#F00D0B" transform="translate(157,240)"/>
<path d="M0 0 C2.72943537 -0.05416741 5.45778564 -0.09375225 8.1875 -0.125 C9.34088867 -0.15013672 9.34088867 -0.15013672 10.51757812 -0.17578125 C14.8149434 -0.21266851 18.07901831 0.0041496 22 2 C20.02 2.99 20.02 2.99 18 4 C18.33 4.66 18.66 5.32 19 6 C15.37 5.01 11.74 4.02 8 3 C8 2.67 8 2.34 8 2 C5.36 1.67 2.72 1.34 0 1 C0 0.67 0 0.34 0 0 Z " fill="#527569" transform="translate(456,173)"/>
<path d="M0 0 C1.32 0 2.64 0 4 0 C4 14.52 4 29.04 4 44 C2.68 44 1.36 44 0 44 C0.33 43.01 0.66 42.02 1 41 C1.33 41 1.66 41 2 41 C2.33 27.8 2.66 14.6 3 1 C2.01 0.67 1.02 0.34 0 0 Z " fill="#FDEBE7" transform="translate(40,204)"/>
<path d="M0 0 C2.97 0 5.94 0 9 0 C9 4.62 9 9.24 9 14 C8.34 14 7.68 14 7 14 C7 12.35 7 10.7 7 9 C5.02 9 3.04 9 1 9 C2.32 8.67 3.64 8.34 5 8 C5.33 6.02 5.66 4.04 6 2 C3.03 1.505 3.03 1.505 0 1 C0 0.67 0 0.34 0 0 Z " fill="#517267" transform="translate(275,203)"/>
<path d="M0 0 C1.74325447 2.6148817 2.41587957 4.0053433 3.125 6.9375 C3.29257813 7.60652344 3.46015625 8.27554688 3.6328125 8.96484375 C4 11 4 11 4 15 C5.32 15.33 6.64 15.66 8 16 C1.4 16 -5.2 16 -12 16 C-10.68 15.67 -9.36 15.34 -8 15 C-7.67 14.01 -7.34 13.02 -7 12 C-7 12.99 -7 13.98 -7 15 C-3.7 15 -0.4 15 3 15 C2.67 13.02 2.34 11.04 2 9 C1.34 9 0.68 9 0 9 C0 6.03 0 3.06 0 0 Z " fill="#AA2E2F" transform="translate(239,233)"/>
<path d="M0 0 C1.32 0 2.64 0 4 0 C4 0.99 4 1.98 4 3 C5.82337891 2.98259766 5.82337891 2.98259766 7.68359375 2.96484375 C9.26822764 2.95546722 10.85286318 2.94636687 12.4375 2.9375 C13.23994141 2.92912109 14.04238281 2.92074219 14.86914062 2.91210938 C16.91295221 2.9034857 18.95683902 2.9477185 21 3 C22 4 22 4 22.09765625 6.28515625 C22.08605469 7.20167969 22.07445312 8.11820313 22.0625 9.0625 C22.05347656 9.98160156 22.04445312 10.90070313 22.03515625 11.84765625 C22.02355469 12.55792969 22.01195312 13.26820313 22 14 C21.67 14 21.34 14 21 14 C21 11.03 21 8.06 21 5 C19.81921875 5.03480469 18.6384375 5.06960937 17.421875 5.10546875 C15.86459758 5.13361232 14.30730475 5.16091187 12.75 5.1875 C11.97269531 5.21263672 11.19539062 5.23777344 10.39453125 5.26367188 C6.85379229 5.30906596 4.6095341 5.33187823 1.453125 3.61328125 C0 2 0 2 0 0 Z " fill="#D63F3B" transform="translate(167,226)"/>
<path d="M0 0 C2.64 0 5.28 0 8 0 C8 2.97 8 5.94 8 9 C3.38 9 -1.24 9 -6 9 C-6 8.67 -6 8.34 -6 8 C-2.7 7.67 0.6 7.34 4 7 C4.33 5.35 4.66 3.7 5 2 C3.35 1.67 1.7 1.34 0 1 C0 0.67 0 0.34 0 0 Z " fill="#4D7268" transform="translate(308,221)"/>
<path d="M0 0 C0.33 0 0.66 0 1 0 C1 4.62 1 9.24 1 14 C0.34 14 -0.32 14 -1 14 C-1 12.35 -1 10.7 -1 9 C-4.3 9 -7.6 9 -11 9 C-11 8.67 -11 8.34 -11 8 C-8.36 8 -5.72 8 -3 8 C-2.690625 6.865625 -2.38125 5.73125 -2.0625 4.5625 C-1 1 -1 1 0 0 Z " fill="#DA3431" transform="translate(75,203)"/>
<path d="M0 0 C1.65 0 3.3 0 5 0 C5.66 2.31 6.32 4.62 7 7 C5.68 7 4.36 7 3 7 C2.67 5.68 2.34 4.36 2 3 C1.67 5.97 1.34 8.94 1 12 C1.99 12 2.98 12 4 12 C4 12.66 4 13.32 4 14 C2.68 14 1.36 14 0 14 C0 9.38 0 4.76 0 0 Z " fill="#FCE2E1" transform="translate(94,234)"/>
<path d="M0 0 C4.95 0 9.9 0 15 0 C16.19126781 3.57380342 15.7349445 5.50883302 15.0625 9.1875 C14.86785156 10.27417969 14.67320313 11.36085937 14.47265625 12.48046875 C14.31667969 13.31191406 14.16070312 14.14335937 14 15 C13.67 15 13.34 15 13 15 C13 10.38 13 5.76 13 1 C8.71 1 4.42 1 0 1 C0 0.67 0 0.34 0 0 Z " fill="#CE1C1C" transform="translate(94,210)"/>
<path d="M0 0 C0.99 0.99 1.98 1.98 3 3 C1.66666667 6.33333333 0.33333333 9.66666667 -1 13 C-1.33 13 -1.66 13 -2 13 C-2 11.35 -2 9.7 -2 8 C-2.66 8 -3.32 8 -4 8 C-2.87548273 5.0280615 -1.77706209 2.66559313 0 0 Z " fill="#4F7266" transform="translate(12,183)"/>
<path d="M0 0 C1.32 0 2.64 0 4 0 C8.04654428 6.91284647 7.26901851 14.25824503 7 22 C6.01 22.33 5.02 22.66 4 23 C4.15984375 22.45214844 4.3196875 21.90429688 4.484375 21.33984375 C5.67391459 15.9418573 5.94196324 10.05519252 3.625 5 C3.08875 4.34 2.5525 3.68 2 3 C1.34 2.01 0.68 1.02 0 0 Z " fill="#FEE1E1" transform="translate(194,221)"/>
<path d="M0 0 C3.42025316 3.42025316 3.95344801 7.71982025 4.125 12.4375 C4.08375 13.283125 4.0425 14.12875 4 15 C2 14 2 14 1 11 C0.34 10.67 -0.32 10.34 -1 10 C-0.67 6.7 -0.34 3.4 0 0 Z " fill="#DB1F20" transform="translate(235,218)"/>
<path d="M0 0 C1.98 0.66 3.96 1.32 6 2 C5.67 3.32 5.34 4.64 5 6 C6.32 6.33 7.64 6.66 9 7 C0.42857143 6.28571429 0.42857143 6.28571429 -3 3 C-2.01 2.67 -1.02 2.34 0 2 C0 1.34 0 0.68 0 0 Z " fill="#51776A" transform="translate(23,278)"/>
<path d="M0 0 C0 3 0 3 -1 5 C-1.66 5 -2.32 5 -3 5 C-2.690625 6.051875 -2.38125 7.10375 -2.0625 8.1875 C-1.24314906 11.12752396 -0.54516069 14.00161623 0 17 C-6.05421687 9.73493976 -6.05421687 9.73493976 -5.9375 6 C-4.60240388 3.15179495 -2.51803096 1.8078171 0 0 Z " fill="#FDD7D6" transform="translate(116,228)"/>
<path d="M0 0 C0.33 0 0.66 0 1 0 C1.33 3.3 1.66 6.6 2 10 C-0.97 10 -3.94 10 -7 10 C-6.67 7.69 -6.34 5.38 -6 3 C-5.67 3 -5.34 3 -5 3 C-5 4.65 -5 6.3 -5 8 C-3.35 8 -1.7 8 0 8 C0 5.36 0 2.72 0 0 Z " fill="#FABBB8" transform="translate(225,222)"/>
<path d="M0 0 C4.62 0 9.24 0 14 0 C13.67 1.32 13.34 2.64 13 4 C13 3.01 13 2.02 13 1 C9.04 1 5.08 1 1 1 C1.49152482 5.86132495 1.49152482 5.86132495 4 8 C3.01 8.495 3.01 8.495 2 9 C1.01 8.67 0.02 8.34 -1 8 C-0.67 5.36 -0.34 2.72 0 0 Z " fill="#FADBD6" transform="translate(216,240)"/>
<path d="M0 0 C1.22589844 0.01353516 1.22589844 0.01353516 2.4765625 0.02734375 C3.41628906 0.04474609 3.41628906 0.04474609 4.375 0.0625 C4.375 0.3925 4.375 0.7225 4.375 1.0625 C2.725 1.3925 1.075 1.7225 -0.625 2.0625 C0.365 2.7225 1.355 3.3825 2.375 4.0625 C-0.595 4.7225 -3.565 5.3825 -6.625 6.0625 C-6.625 4.4125 -6.625 2.7625 -6.625 1.0625 C-4.21954362 -0.14022819 -2.67503047 -0.03821472 0 0 Z " fill="#4D7266" transform="translate(31.625,172.9375)"/>
<path d="M0 0 C0.66 0 1.32 0 2 0 C2 3.96 2 7.92 2 12 C3.32 12.33 4.64 12.66 6 13 C2.04 13 -1.92 13 -6 13 C-2 10 -2 10 0 9 C0 6.03 0 3.06 0 0 Z " fill="#44655A" transform="translate(340,236)"/>
<path d="M0 0 C0.33 0 0.66 0 1 0 C1 2.97 1 5.94 1 9 C-4.94 9.495 -4.94 9.495 -11 10 C-11.66 11.98 -12.32 13.96 -13 16 C-13.33 16 -13.66 16 -14 16 C-14 13.36 -14 10.72 -14 8 C-9.38 8 -4.76 8 0 8 C0 5.36 0 2.72 0 0 Z " fill="#FADCD8" transform="translate(153,222)"/>
<path d="M0 0 C7.09727428 -0.10808032 13.96094956 0.06145994 21 1 C21 2.32 21 3.64 21 5 C20.34 5 19.68 5 19 5 C19 4.34 19 3.68 19 3 C12.73 2.34 6.46 1.68 0 1 C0 0.67 0 0.34 0 0 Z " fill="#FFE4E2" transform="translate(176,212)"/>
<path d="M0 0 C3.96 0 7.92 0 12 0 C12 0.66 12 1.32 12 2 C13.98 2 15.96 2 18 2 C18 2.33 18 2.66 18 3 C11.8894576 3.11269443 6.04829486 2.89604368 0 2 C0 1.34 0 0.68 0 0 Z " fill="#D91F1F" transform="translate(138,209)"/>
<path d="M0 0 C0.66 0.33 1.32 0.66 2 1 C0.824375 1.86625 0.824375 1.86625 -0.375 2.75 C-4.47067698 6.72965214 -4.42271952 12.59768863 -5 18 C-5.33 18 -5.66 18 -6 18 C-6.68867618 7.24899957 -6.68867618 7.24899957 -4.125 3.375 C-2 1 -2 1 0 0 Z " fill="#DF4748" transform="translate(170,204)"/>
<path d="M0 0 C0.81726563 0.80824219 1.63453125 1.61648437 2.4765625 2.44921875 C6.26204856 5.60379047 9.58340325 5.77350871 14.375 5.8125 C15.11105469 5.83763672 15.84710938 5.86277344 16.60546875 5.88867188 C18.40308149 5.94703593 20.2015935 5.97650538 22 6 C22 6.33 22 6.66 22 7 C19.4380143 7.2498764 16.87765869 7.47541116 14.3125 7.6875 C13.2306543 7.79674805 13.2306543 7.79674805 12.12695312 7.90820312 C7.47904631 8.26899954 4.63313268 8.01829484 1 5 C0.1875 2.3125 0.1875 2.3125 0 0 Z " fill="#FDD2D2" transform="translate(165,225)"/>
<path d="M0 0 C2 3 2 3 2 5 C-2.43076923 7.09230769 -2.43076923 7.09230769 -5.3125 6.625 C-5.869375 6.41875 -6.42625 6.2125 -7 6 C-6.01 6 -5.02 6 -4 6 C-4.33 4.68 -4.66 3.36 -5 2 C-3.35 1.34 -1.7 0.68 0 0 Z " fill="#567A6E" transform="translate(476,278)"/>
<path d="M0 0 C0.33 0 0.66 0 1 0 C1 3.3 1 6.6 1 10 C-0.24716797 10.07347656 -0.24716797 10.07347656 -1.51953125 10.1484375 C-2.60621094 10.22320312 -3.69289063 10.29796875 -4.8125 10.375 C-5.89144531 10.44460937 -6.97039062 10.51421875 -8.08203125 10.5859375 C-11.18626186 10.81195733 -11.18626186 10.81195733 -14 13 C-14 11.68 -14 10.36 -14 9 C-9.38 9 -4.76 9 0 9 C0 6.03 0 3.06 0 0 Z " fill="#CDDDDA" transform="translate(316,221)"/>
<path d="M0 0 C3.48354375 5.22531563 4.30934332 10.8131337 4 17 C3.34 16.67 2.68 16.34 2 16 C0.25548659 10.47570753 -0.20612487 5.77149626 0 0 Z " fill="#57776F" transform="translate(450,223)"/>
<path d="M0 0 C0.33 0 0.66 0 1 0 C1.3540919 6.51791392 1.03901852 11.17521449 -2 17 C-3.44715727 13.12813552 -2.5441918 10.1767672 -1.5625 6.25 C-1.27503906 5.07953125 -0.98757812 3.9090625 -0.69140625 2.703125 C-0.46324219 1.81109375 -0.23507813 0.9190625 0 0 Z " fill="#D52A25" transform="translate(214,211)"/>
<path d="M0 0 C0.99 0.495 0.99 0.495 2 1 C2.63385922 3.04243528 3.01826504 5.09132519 3.4375 7.1875 C3.623125 7.785625 3.80875 8.38375 4 9 C4.66 9.33 5.32 9.66 6 10 C6 10.66 6 11.32 6 12 C4.68 12 3.36 12 2 12 C0.86235649 7.73383684 0 4.43513689 0 0 Z " fill="#FBDBD9" transform="translate(241,236)"/>
<path d="M0 0 C4 4.75 4 4.75 4 7 C5.32 7.33 6.64 7.66 8 8 C5.36 8 2.72 8 0 8 C0 7.01 0 6.02 0 5 C-0.33 4.34 -0.66 3.68 -1 3 C-0.67 2.01 -0.34 1.02 0 0 Z " fill="#4A6960" transform="translate(361,241)"/>
<path d="M0 0 C4.29 0 8.58 0 13 0 C13 1.65 13 3.3 13 5 C12.525625 4.525625 12.05125 4.05125 11.5625 3.5625 C7.88355203 1.31923904 4.2378888 1.26260422 0 1 C0 0.67 0 0.34 0 0 Z " fill="#FFE0DD" transform="translate(144,212)"/>
<path d="M0 0 C2.97 0 5.94 0 9 0 C8.01 0.495 8.01 0.495 7 1 C7 1.66 7 2.32 7 3 C7.66 3.33 8.32 3.66 9 4 C6.75 4.25 6.75 4.25 4 4 C1.6875 2 1.6875 2 0 0 Z " fill="#F8DBD9" transform="translate(116,246)"/>
<path d="M0 0 C2.00293347 3.00440021 2.49271626 4.70993945 3.125 8.1875 C3.37636719 9.53908203 3.37636719 9.53908203 3.6328125 10.91796875 C3.75398437 11.60503906 3.87515625 12.29210937 4 13 C3.34 12.67 2.68 12.34 2 12 C2 11.01 2 10.02 2 9 C1.34 9 0.68 9 0 9 C0 6.03 0 3.06 0 0 Z " fill="#D53532" transform="translate(239,233)"/>
<path d="M0 0 C0 3.69418201 -1.28179295 5.77836178 -3 9 C-4.5 7.625 -4.5 7.625 -6 6 C-6 5.34 -6 4.68 -6 4 C-4.03852126 2.61061923 -2.03833424 1.2739589 0 0 Z " fill="#E4F1EF" transform="translate(408,229)"/>
<path d="M0 0 C0.33 0.66 0.66 1.32 1 2 C2.65 1.67 4.3 1.34 6 1 C5.34 1.66 4.68 2.32 4 3 C3.83312552 5.58354218 3.83312552 5.58354218 4 8 C2.35 6.35 0.7 4.7 -1 3 C-0.67 2.01 -0.34 1.02 0 0 Z " fill="#DD201E" transform="translate(107,230)"/>
<path d="M0 0 C1.65 0.33 3.3 0.66 5 1 C3.71937515 2.7074998 2.38232443 4.37373596 1 6 C0.34 6 -0.32 6 -1 6 C-0.67 4.02 -0.34 2.04 0 0 Z " fill="#54796D" transform="translate(482,274)"/>
<path d="M0 0 C0.66 0.33 1.32 0.66 2 1 C1.6875 3.375 1.6875 3.375 1 6 C0.01 6.66 -0.98 7.32 -2 8 C-2.33 6.35 -2.66 4.7 -3 3 C-2.34 3 -1.68 3 -1 3 C-0.67 2.01 -0.34 1.02 0 0 Z " fill="#DD191A" transform="translate(115,223)"/>
<path d="M0 0 C0.33 0.99 0.66 1.98 1 3 C-1.31 4.32 -3.62 5.64 -6 7 C-6 5.68 -6 4.36 -6 3 C-4.35 3 -2.7 3 -1 3 C-0.67 2.01 -0.34 1.02 0 0 Z " fill="#507469" transform="translate(363,227)"/>
<path d="M0 0 C0.33 0 0.66 0 1 0 C1.33 2.31 1.66 4.62 2 7 C1.34 7 0.68 7 0 7 C-0.66 7.66 -1.32 8.32 -2 9 C-1.125 1.125 -1.125 1.125 0 0 Z " fill="#D4E8E4" transform="translate(436,213)"/>
<path d="M0 0 C0.99 0.99 1.98 1.98 3 3 C2.01 3.99 1.02 4.98 0 6 C-0.99 4.68 -1.98 3.36 -3 2 C-2.01 1.34 -1.02 0.68 0 0 Z " fill="#507569" transform="translate(16,273)"/>
<path d="M0 0 C0.66 0 1.32 0 2 0 C1.67 2.31 1.34 4.62 1 7 C2.32 7.33 3.64 7.66 5 8 C3.35 8 1.7 8 0 8 C-0.38063221 5.6739143 -0.71269945 3.33944736 -1 1 C-0.67 0.67 -0.34 0.34 0 0 Z " fill="#4B6A60" transform="translate(427,241)"/>
<path d="M0 0 C1.32 0 2.64 0 4 0 C4 0.99 4 1.98 4 3 C4.66 3 5.32 3 6 3 C6 3.66 6 4.32 6 5 C3.5625 4.1875 3.5625 4.1875 1 3 C0.67 2.01 0.34 1.02 0 0 Z " fill="#D72E30" transform="translate(167,226)"/>
<path d="M0 0 C3.00617269 3.00617269 2.59585316 5.82381598 3 10 C1.5 8.9375 1.5 8.9375 0 7 C-0.1875 3.3125 -0.1875 3.3125 0 0 Z " fill="#D43130" transform="translate(233,208)"/>
</svg>
